<?xml version="1.0" encoding="utf-8"?>

<!DOCTYPE svg PUBLIC "-//W3C//DTD SVG 1.1//EN" "http://www.w3.org/Graphics/SVG/1.1/DTD/svg11.dtd">
<!-- Uploaded to: SVG Repo, www.svgrepo.com, Generator: SVG Repo Mixer Tools -->
<svg height="50px" width="50px" version="1.1" id="_x32_" xmlns="http://www.w3.org/2000/svg" xmlns:xlink="http://www.w3.org/1999/xlink" 
	 viewBox="0 0 512 512"  xml:space="preserve">
<style type="text/css">
	.st0{fill:#000000;}
</style>
<g>
	<path class="st0" d="M506.224,444.344c0,0-59.139-51.073-83.295-75.509c-12.618-12.775-12.7-26.72-10.02-36.608
		c6.169-22.729,18.127-54.554,20.181-92.754L239.467,433.095c38.225-2.062,70.042-14.028,92.762-20.188
		c9.88-2.672,23.834-2.606,36.609,10.02c24.435,24.156,75.534,83.295,75.534,83.295c3.224,3.563,7.768,5.641,12.577,5.773
		c4.824,0.123,9.467-1.757,12.865-5.155l37.037-37.028c3.398-3.406,5.262-8.05,5.138-12.866
		C511.865,452.146,509.795,447.585,506.224,444.344z"/>
	<path class="st0" d="M368.656,77.51C291.785-10.873,159.075-33.899,62.593,62.591c-96.482,96.482-73.464,229.192,14.919,306.07
		c44.715,38.902,86.808,54.637,124.298,58.76l225.614-225.604C423.292,164.309,407.574,122.233,368.656,77.51z M151.603,285.952
		c-29.359,0.016-53.168-23.801-53.168-53.16c0-29.36,23.81-53.168,53.177-53.168c29.36,0,53.177,23.809,53.16,53.16
		C204.771,262.144,180.963,285.952,151.603,285.952z"/>
</g>
</svg>