<?xml version="1.0" encoding="UTF-8" standalone="no"?>
<!DOCTYPE svg PUBLIC "-//W3C//DTD SVG 1.1//EN" "http://www.w3.org/Graphics/SVG/1.1/DTD/svg11.dtd">
<svg width="100%" height="100%" viewBox="0 0 989 329" version="1.1" xmlns="http://www.w3.org/2000/svg" xmlns:xlink="http://www.w3.org/1999/xlink" xml:space="preserve" xmlns:serif="http://www.serif.com/" style="fill-rule:evenodd;clip-rule:evenodd;stroke-linecap:round;stroke-linejoin:round;stroke-miterlimit:1.5;">
    <g transform="matrix(1,0,0,1,-17.5127,-347.812)">
        <g transform="matrix(1,0,0,1,0,145)">
            <g>
                <g transform="matrix(1.02677,0,0,1.19278,-11.8299,-83.967)">
                    <path d="M982.884,387.382C982.884,365.095 961.864,347.001 935.974,347.001L83.766,347.001C57.876,347.001 36.856,365.095 36.856,387.382L36.856,468.144C36.856,490.431 57.876,508.525 83.766,508.525L935.974,508.525C961.864,508.525 982.884,490.431 982.884,468.144L982.884,387.382Z" style="stroke:black;stroke-width:15.28px;"/>
                </g>
                <g transform="matrix(0.864997,0,0,0.864997,-176.208,-136.892)">
                    <g transform="matrix(173.31,0,0,173.31,1338.26,719.513)">
                    </g>
                    <text x="255.067px" y="719.513px" style="font-family:'CursedTimerULiL', 'Cursed Timer ULiL';font-size:173.31px;fill:white;">Scoreboard</text>
                </g>
            </g>
            <g transform="matrix(1,0,0,1,-1.15669,141.325)">
                <g transform="matrix(0.759194,0,0,1,18.4255,-149.687)">
                    <path d="M446.42,253.006C446.42,234.61 426.747,219.674 402.515,219.674L93.505,219.674C69.273,219.674 49.6,234.61 49.6,253.006L49.6,319.671C49.6,338.068 69.273,353.004 93.505,353.004L402.515,353.004C426.747,353.004 446.42,338.068 446.42,319.671L446.42,253.006Z" style="fill:rgb(253,0,0);stroke:rgb(253,0,0);stroke-width:19.15px;"/>
                </g>
                <g transform="matrix(1,0,0,1,7.69299,-153.47)">
                    <g transform="matrix(116.262,0,0,116.262,324.358,328.703)">
                    </g>
                    <text x="73.233px" y="328.703px" style="font-family:'TrumpTownPro', 'Trump Town Pro';font-weight:700;font-size:116.262px;">OPEN</text>
                </g>
            </g>
        </g>
    </g>
</svg>
