<?xml version="1.0" encoding="iso-8859-1"?>
<!-- Uploaded to: SVG Repo, www.svgrepo.com, Generator: SVG Repo Mixer Tools -->
<!DOCTYPE svg PUBLIC "-//W3C//DTD SVG 1.1//EN" "http://www.w3.org/Graphics/SVG/1.1/DTD/svg11.dtd">
<svg fill="rgb(90, 130, 216)" version="1.1" id="Capa_1" xmlns="http://www.w3.org/2000/svg" xmlns:xlink="http://www.w3.org/1999/xlink" 
	 width="800px" height="800px" viewBox="0 0 560.352 560.351"
	 xml:space="preserve">
<g>
	<g>
		<path d="M547.031,258.684H403.9v-70.963c0-5.288-4.274-9.562-9.562-9.562s-9.562,4.274-9.562,9.562v70.963H241.634
			c-7.344,0-13.311,5.957-13.311,13.311v35.238c0,7.354,5.967,13.311,13.311,13.311h37.771V481.28c0,5.288,4.274,9.562,9.562,9.562
			h32.389c5.288,0,9.562-4.274,9.562-9.562V320.543h216.122c7.354,0,13.311-5.957,13.311-13.311v-35.238
			C560.343,264.641,554.385,258.684,547.031,258.684z"/>
		<path d="M41.893,486.003l83.203-58.379c6.761-4.752,10.93-12.374,11.303-20.636l3.232-74.76l55.424,47.449v84.552
			c0,14.697,11.915,26.612,26.613,26.612c14.688,0,26.603-11.915,26.603-26.612v-96.801c0-7.766-3.385-15.167-9.304-20.216
			l-69.682-59.67v-44.829l24.977-1.147c3.175-0.144,6.235-1.128,8.893-2.869l40.382-26.354L259,217.183
			c1.769,0.545,3.538,0.813,5.307,0.813c7.555,0,14.545-4.867,16.916-12.46c1.778-5.68,0.525-11.551-2.802-15.96l16.619-10.854
			c8.205-5.354,10.51-16.352,5.154-24.547c-0.688-1.061-1.481-2.008-2.343-2.869l1.817-6.579c0.688-2.448-0.22-4.982-2.104-6.483
			c2.027-4.017,7.163-6.837,7.211-6.875l0.019-0.01c10.337,0.469,20.024-6.215,22.884-16.601l2.399-8.664
			c3.328-12.049-3.768-24.566-15.816-27.903l-11.924-3.299c-12.059-3.337-24.576,3.758-27.913,15.816l-2.4,8.663
			c-2.764,10.012,1.674,20.33,10.155,25.446l0.201,0.363c0.038,0.048,3.165,5.403,2.62,9.983c-2.027,0.554-3.758,2.123-4.352,4.303
			l-2.237,8.09c-0.946,0.402-1.894,0.861-2.792,1.444l-37.495,24.479l-50.251-15.701c-1.712-0.545-3.49-0.813-5.288-0.813h-13.301
			v-0.048H114.94c-14.688,0-26.603,11.905-26.603,26.612v111.662h0.096c-0.335,1.521-0.622,3.079-0.688,4.695l-3.949,91.685
			l-72.474,50.845c-12.03,8.443-14.927,25.044-6.493,37.073c5.173,7.373,13.426,11.332,21.802,11.332
			C31.909,490.833,37.245,489.264,41.893,486.003z M169.284,192.464h10.614l19.737,6.177l-11.81,7.708l-18.542,0.832V192.464z"/>
		<circle cx="128.815" cy="109.069" r="39.56"/>
	</g>
</g>
</svg>