<?xml version="1.0" encoding="iso-8859-1"?>
<!-- Uploaded to: SVG Repo, www.svgrepo.com, Generator: SVG Repo Mixer Tools -->
<svg fill="rgb(90, 130, 216)" version="1.1" id="Layer_1" xmlns="http://www.w3.org/2000/svg" xmlns:xlink="http://www.w3.org/1999/xlink" 
	 viewBox="0 0 496 496" xml:space="preserve">
<g>
	<g>
		<g>
			<path d="M472,0H24C10.768,0,0,10.768,0,24v320c0,13.232,10.768,24,24,24h156.2c4.496,12.664,12.384,23.712,22.64,32H192
				c-39.704,0-72,32.296-72,72v24h16v-24c0-30.872,25.128-56,56-56h16.808c3.72,18.232,19.872,32,39.192,32s35.472-13.768,39.192-32
				H304c30.872,0,56,25.128,56,56v24h16v-24c0-39.704-32.296-72-72-72h-10.84c10.256-8.288,18.144-19.336,22.64-32H472
				c13.232,0,24-10.768,24-24V24C496,10.768,485.232,0,472,0z M80,288V80h112v197.808c-2.768,3.144-5.224,6.544-7.344,10.192H80z
				 M248,432c-10.416,0-19.216-6.712-22.528-16h45.048C267.216,425.288,258.416,432,248,432z M248,400
				c-25.504,0-47.048-17.168-53.784-40.536l21.864,13.12c3.736,2.232,8,3.416,12.352,3.416h39.144c4.352,0,8.616-1.184,12.344-3.424
				l21.864-13.12C295.048,382.832,273.504,400,248,400z M304,339.472l-32.32,19.392c-1.24,0.744-2.664,1.136-4.112,1.136h-39.144
				c-1.448,0-2.864-0.392-4.112-1.144L192,339.472V320c0-26.472,21.528-48,48-48h16c26.472,0,48,21.528,48,48V339.472z M311.344,288
				c-2.12-3.64-4.576-7.048-7.344-10.192V80h112v208H311.344z M480,344c0,4.416-3.584,8-8,8H319.528
				c0.296-2.632,0.472-5.296,0.472-8v-8h16v-16h-16c0-5.536-0.776-10.872-2.104-16H416c8.824,0,16-7.176,16-16V80
				c0-8.824-7.176-16-16-16H304c-8.824,0-16,7.176-16,16v184.656c-9.424-5.472-20.336-8.656-32-8.656h-16
				c-11.664,0-22.576,3.184-32,8.656V80c0-8.824-7.176-16-16-16H80c-8.824,0-16,7.176-16,16v208c0,8.824,7.176,16,16,16h98.104
				c-1.328,5.128-2.104,10.464-2.104,16h-16v16h16v8c0,2.704,0.176,5.368,0.472,8H24c-4.416,0-8-3.584-8-8V24c0-4.416,3.584-8,8-8
				h448c4.416,0,8,3.584,8,8V344z"/>
			<path d="M248,120c-13.232,0-24,10.768-24,24s10.768,24,24,24s24-10.768,24-24S261.232,120,248,120z M248,152
				c-4.416,0-8-3.584-8-8s3.584-8,8-8s8,3.584,8,8S252.416,152,248,152z"/>
			<path d="M248,200c-13.232,0-24,10.768-24,24s10.768,24,24,24s24-10.768,24-24S261.232,200,248,200z M248,232
				c-4.416,0-8-3.584-8-8s3.584-8,8-8s8,3.584,8,8S252.416,232,248,232z"/>
			<rect x="32" y="32" width="16" height="16"/>
			<rect x="64" y="32" width="16" height="16"/>
			<rect x="96" y="32" width="16" height="16"/>
			<rect x="128" y="32" width="16" height="16"/>
			<rect x="160" y="32" width="16" height="16"/>
			<rect x="192" y="32" width="16" height="16"/>
			<rect x="224" y="32" width="16" height="16"/>
			<rect x="256" y="32" width="16" height="16"/>
			<rect x="288" y="32" width="16" height="16"/>
			<rect x="320" y="32" width="16" height="16"/>
			<rect x="352" y="32" width="16" height="16"/>
			<rect x="384" y="32" width="16" height="16"/>
			<rect x="416" y="32" width="16" height="16"/>
			<rect x="448" y="32" width="16" height="16"/>
			<rect x="32" y="320" width="16" height="16"/>
			<rect x="64" y="320" width="16" height="16"/>
			<rect x="96" y="320" width="16" height="16"/>
			<rect x="128" y="320" width="16" height="16"/>
			<rect x="352" y="320" width="16" height="16"/>
			<rect x="384" y="320" width="16" height="16"/>
			<rect x="416" y="320" width="16" height="16"/>
			<rect x="448" y="320" width="16" height="16"/>
			<rect x="32" y="64" width="16" height="16"/>
			<rect x="32" y="96" width="16" height="16"/>
			<rect x="32" y="128" width="16" height="16"/>
			<rect x="32" y="160" width="16" height="16"/>
			<rect x="32" y="192" width="16" height="16"/>
			<rect x="32" y="224" width="16" height="16"/>
			<rect x="32" y="256" width="16" height="16"/>
			<rect x="32" y="288" width="16" height="16"/>
			<rect x="448" y="64" width="16" height="16"/>
			<rect x="448" y="96" width="16" height="16"/>
			<rect x="448" y="128" width="16" height="16"/>
			<rect x="448" y="160" width="16" height="16"/>
			<rect x="448" y="192" width="16" height="16"/>
			<rect x="448" y="224" width="16" height="16"/>
			<rect x="448" y="256" width="16" height="16"/>
			<rect x="448" y="288" width="16" height="16"/>
			<path d="M96,112v56c0,8.824,7.176,16,16,16h40c4.416,0,8,3.584,8,8v56c0,4.416-3.584,8-8,8h-32c-4.416,0-8-3.584-8-8v-8H96v8
				c0,13.232,10.768,24,24,24h32c13.232,0,24-10.768,24-24v-56c0-13.232-10.768-24-24-24h-40v-56h64V96h-64
				C103.176,96,96,103.176,96,112z"/>
			<path d="M376,96h-32c-13.232,0-24,10.768-24,24v32c0,13.232,10.768,24,24,24h40v72c0,4.416-3.584,8-8,8h-32c-4.416,0-8-3.584-8-8
				v-8h-16v8c0,13.232,10.768,24,24,24h32c13.232,0,24-10.768,24-24V120C400,106.768,389.232,96,376,96z M384,160h-40
				c-4.416,0-8-3.584-8-8v-32c0-4.416,3.584-8,8-8h32c4.416,0,8,3.584,8,8V160z"/>
			<rect x="168" y="456" width="16" height="40"/>
			<rect x="312" y="456" width="16" height="40"/>
		</g>
	</g>
</g>
</svg>