<?xml version="1.0" encoding="iso-8859-1"?>
<!-- Uploaded to: SVG Repo, www.svgrepo.com, Generator: SVG Repo Mixer Tools -->
<svg fill="rgb(90, 130, 216)" version="1.1" id="Layer_1" xmlns="http://www.w3.org/2000/svg" xmlns:xlink="http://www.w3.org/1999/xlink" 
	 viewBox="0 0 480 480" xml:space="preserve">
<g>
	<g>
		<path d="M184,80H8c-4.416,0-8,3.576-8,8v48c0,4.424,3.584,8,8,8h24v104c0,4.424,3.584,8,8,8h112c4.416,0,8-3.576,8-8V144h24
			c4.416,0,8-3.576,8-8V88C192,83.576,188.416,80,184,80z M109.776,96c-2.776,4.76-7.88,8-13.776,8s-11-3.24-13.776-8H109.776z
			 M176,128h-24c-4.416,0-8,3.576-8,8v104H48V136c0-4.424-3.584-8-8-8H16V96h49.136c3.576,13.768,16,24,30.864,24
			s27.288-10.232,30.864-24H176V128z"/>
	</g>
</g>
<g>
	<g>
		<path d="M152,272H40c-4.416,0-8,3.576-8,8v88c0,4.424,3.584,8,8,8h112c4.416,0,8-3.576,8-8v-88C160,275.576,156.416,272,152,272z
			 M144,360h-40v-32H88v32H48v-72h96V360z"/>
	</g>
</g>
<g>
	<g>
		<path d="M472,80H296c-4.416,0-8,3.576-8,8v48c0,4.424,3.584,8,8,8h24v104c0,4.424,3.584,8,8,8h112c4.416,0,8-3.576,8-8V144h24
			c4.416,0,8-3.576,8-8V88C480,83.576,476.416,80,472,80z M397.776,96c-2.776,4.76-7.88,8-13.776,8s-11-3.24-13.776-8H397.776z
			 M464,128h-24c-4.416,0-8,3.576-8,8v104h-96V136c0-4.424-3.584-8-8-8h-24V96h49.136c3.576,13.768,16,24,30.864,24
			s27.288-10.232,30.864-24H464V128z"/>
	</g>
</g>
<g>
	<g>
		<path d="M440,272H328c-4.416,0-8,3.576-8,8v88c0,4.424,3.584,8,8,8h112c4.416,0,8-3.576,8-8v-88C448,275.576,444.416,272,440,272z
			 M432,360h-40v-32h-16v32h-40v-72h96V360z"/>
	</g>
</g>
<g>
	<g>
		<path d="M296,200v-8c0-4.424-3.584-8-8-8h-24c-8.824,0-16,7.176-16,16v24c0,4.424,3.584,8,8,8h24v16h-32v8c0,4.424,3.584,8,8,8h24
			c8.824,0,16-7.176,16-16v-24c0-4.424-3.584-8-8-8h-24v-16H296z"/>
	</g>
</g>
<g>
	<g>
		<path d="M216,184v52.688l-8,8l-8-8V184h-16v56c0,2.128,0.84,4.16,2.344,5.656l16,16c1.56,1.56,3.608,2.344,5.656,2.344
			c2.048,0,4.096-0.784,5.656-2.344l16-16C231.16,244.16,232,242.128,232,240v-56H216z"/>
	</g>
</g>
<g>
	<g>
		<rect x="200" y="280" width="16" height="16"/>
	</g>
</g>
<g>
	<g>
		<rect x="232" y="280" width="16" height="16"/>
	</g>
</g>
<g>
	<g>
		<rect x="264" y="280" width="16" height="16"/>
	</g>
</g>
<g>
	<g>
		<path d="M64,416c-13.232,0-24,10.768-24,24v16c0,13.232,10.768,24,24,24s24-10.768,24-24v-16C88,426.768,77.232,416,64,416z
			 M72,456c0,4.416-3.592,8-8,8s-8-3.584-8-8v-16c0-4.416,3.592-8,8-8s8,3.584,8,8V456z"/>
	</g>
</g>
<g>
	<g>
		<path d="M128,416c-13.232,0-24,10.768-24,24v16c0,13.232,10.768,24,24,24s24-10.768,24-24v-16C152,426.768,141.232,416,128,416z
			 M136,456c0,4.416-3.592,8-8,8s-8-3.584-8-8v-16c0-4.416,3.592-8,8-8s8,3.584,8,8V456z"/>
	</g>
</g>
<g>
	<g>
		<path d="M352,416c-13.232,0-24,10.768-24,24v16c0,13.232,10.768,24,24,24s24-10.768,24-24v-16C376,426.768,365.232,416,352,416z
			 M360,456c0,4.416-3.592,8-8,8c-4.408,0-8-3.584-8-8v-16c0-4.416,3.592-8,8-8c4.408,0,8,3.584,8,8V456z"/>
	</g>
</g>
<g>
	<g>
		<path d="M416,416c-13.232,0-24,10.768-24,24v16c0,13.232,10.768,24,24,24s24-10.768,24-24v-16C440,426.768,429.232,416,416,416z
			 M424,456c0,4.416-3.592,8-8,8c-4.408,0-8-3.584-8-8v-16c0-4.416,3.592-8,8-8c4.408,0,8,3.584,8,8V456z"/>
	</g>
</g>
<g>
	<g>
		<rect x="120" width="16" height="16"/>
	</g>
</g>
<g>
	<g>
		<rect x="88" width="16" height="16"/>
	</g>
</g>
<g>
	<g>
		<rect x="56" width="16" height="16"/>
	</g>
</g>
<g>
	<g>
		<rect x="88" y="32" width="16" height="16"/>
	</g>
</g>
<g>
	<g>
		<rect x="408" width="16" height="16"/>
	</g>
</g>
<g>
	<g>
		<rect x="376" width="16" height="16"/>
	</g>
</g>
<g>
	<g>
		<rect x="344" width="16" height="16"/>
	</g>
</g>
<g>
	<g>
		<rect x="376" y="32" width="16" height="16"/>
	</g>
</g>
</svg>