<?xml version="1.0" encoding="iso-8859-1"?>
<!-- Uploaded to: SVG Repo, www.svgrepo.com, Generator: SVG Repo Mixer Tools -->
<!DOCTYPE svg PUBLIC "-//W3C//DTD SVG 1.1//EN" "http://www.w3.org/Graphics/SVG/1.1/DTD/svg11.dtd">
<svg fill="rgb(90, 130, 216)" height="800px" width="800px" version="1.1" id="Capa_1" xmlns="http://www.w3.org/2000/svg" xmlns:xlink="http://www.w3.org/1999/xlink" 
	 viewBox="0 0 371.08 371.08" xml:space="preserve">
<g>
	<path d="M370.235,198.554l-45.454-80.227V71.693c0-3.59-2.91-6.5-6.5-6.5h-22.793L280.52,43.585
		c-1.215-1.753-3.212-2.799-5.344-2.799H95.902c-2.133,0-4.129,1.046-5.344,2.799L75.593,65.193H52.799c-3.59,0-6.5,2.91-6.5,6.5
		v46.633L0.845,198.554c-1.14,2.012-1.125,4.479,0.04,6.477s3.303,3.227,5.616,3.227h20.396v115.536c0,3.59,2.91,6.5,6.5,6.5
		s6.5-2.91,6.5-6.5v-70.575h291.287v70.575c0,3.59,2.91,6.5,6.5,6.5s6.5-2.91,6.5-6.5V208.258h20.396
		c2.313,0,4.451-1.229,5.616-3.227C371.36,203.032,371.376,200.566,370.235,198.554z M279.673,65.193H192.04V53.787h79.732
		L279.673,65.193z M99.307,53.787h79.733v11.406H91.406L99.307,53.787z M59.299,78.193h252.482v36.778H59.299V78.193z
		 M55.775,127.971H179.04v67.287H17.653L55.775,127.971z M39.896,208.258h10.191l-10.191,17.665V208.258z M46.657,240.218
		l18.439-31.96h242.51l17.193,31.96H46.657z M331.183,224.645l-8.815-16.387h8.815V224.645z M192.04,195.258v-67.287h123.264
		l38.123,67.287H192.04z"/>
	<path d="M123.05,178.074l-19.903-6.634c-0.213-2.972-1.926-7.107-8.387-11.075c-4.711-2.893-11.144-5.204-18.113-6.505
		c-3.965-0.741-7.848-1.117-11.54-1.117c-11.662,0-19.042,3.706-20.249,10.166c-0.522,2.792-0.142,8.248,8.264,13.41
		c4.711,2.893,11.144,5.204,18.113,6.505c3.965,0.741,7.847,1.116,11.539,1.116c6.066,0,10.96-1.011,14.443-2.882l22.354,7.451
		c0.577,0.192,1.163,0.284,1.74,0.284c2.303,0,4.448-1.458,5.217-3.762C127.489,182.149,125.932,179.034,123.05,178.074z
		 M73.256,172.011c-7.301-1.364-12.438-3.695-15.23-5.584c-0.81-0.548-0.561-1.793,0.39-2.016c1.601-0.374,3.823-0.669,6.691-0.669
		c3.016,0,6.219,0.313,9.52,0.929c7.216,1.348,12.316,3.641,15.129,5.517c0.5,0.333,0.602,0.993,0.301,1.513
		c-0.005,0.008-0.01,0.017-0.015,0.025c-0.16,0.281-0.406,0.5-0.721,0.572c-1.588,0.361-3.754,0.641-6.546,0.641
		C79.758,172.94,76.556,172.627,73.256,172.011z"/>
	<circle cx="142.5" cy="157.794" r="6.222"/>
</g>
</svg>