<?xml version="1.0" encoding="UTF-8" standalone="no"?><!DOCTYPE svg PUBLIC "-//W3C//DTD SVG 1.1//EN" "http://www.w3.org/Graphics/SVG/1.1/DTD/svg11.dtd"><svg width="100%" height="100%" viewBox="0 0 2000 2000" version="1.1" xmlns="http://www.w3.org/2000/svg" xmlns:xlink="http://www.w3.org/1999/xlink" xml:space="preserve" xmlns:serif="http://www.serif.com/" style="fill-rule:evenodd;clip-rule:evenodd;stroke-linejoin:round;stroke-miterlimit:2;"><g><g><path d="M766.667,587.5l-733.334,0c-18.4,0 -33.333,14.9 -33.333,33.333l0,200c0,18.434 14.933,33.334 33.333,33.334l100,-0l0,433.333c0,18.433 14.934,33.333 33.334,33.333l466.666,0c18.4,0 33.334,-14.9 33.334,-33.333l-0,-433.333l100,-0c18.4,-0 33.333,-14.9 33.333,-33.334l0,-200c0,-18.433 -14.933,-33.333 -33.333,-33.333Zm-309.267,66.667c-11.567,19.833 -32.833,33.333 -57.4,33.333c-24.567,0 -45.833,-13.5 -57.4,-33.333l114.8,-0Zm275.933,133.333l-100,0c-18.4,0 -33.333,14.9 -33.333,33.333l0,433.334l-400,-0l0,-433.334c0,-18.433 -14.933,-33.333 -33.333,-33.333l-100,0l-0,-133.333l204.733,-0c14.9,57.366 66.667,100 128.6,100c61.933,-0 113.7,-42.634 128.6,-100l204.733,-0l0,133.333Z" style="fill:#5a82d8;fill-rule:nonzero;"/></g></g><g><g><path d="M1966.67,587.5l-733.334,0c-18.4,0 -33.333,14.9 -33.333,33.333l0,200c0,18.434 14.933,33.334 33.333,33.334l100,-0l0,433.333c0,18.433 14.934,33.333 33.334,33.333l466.666,0c18.4,0 33.334,-14.9 33.334,-33.333l-0,-433.333l100,-0c18.4,-0 33.333,-14.9 33.333,-33.334l0,-200c0,-18.433 -14.933,-33.333 -33.333,-33.333Zm-309.267,66.667c-11.567,19.833 -32.833,33.333 -57.4,33.333c-24.567,0 -45.833,-13.5 -57.4,-33.333l114.8,-0Zm275.933,133.333l-100,0c-18.4,0 -33.333,14.9 -33.333,33.333l0,433.334l-400,-0l0,-433.334c0,-18.433 -14.933,-33.333 -33.333,-33.333l-100,0l-0,-133.333l204.733,-0c14.9,57.366 66.667,100 128.6,100c61.933,-0 113.7,-42.634 128.6,-100l204.733,-0l0,133.333Z" style="fill:#5a82d8;fill-rule:nonzero;"/></g></g><g><g><path d="M1233.33,975l0,-33.333c0,-18.434 -14.933,-33.334 -33.333,-33.334l-100,0c-36.767,0 -66.667,29.9 -66.667,66.667l0,100c0,18.433 14.934,33.333 33.334,33.333l100,0l-0,66.667l-133.334,0l0,33.333c0,18.434 14.934,33.334 33.334,33.334l100,-0c36.766,-0 66.666,-29.9 66.666,-66.667l0,-100c0,-18.433 -14.933,-33.333 -33.333,-33.333l-100,-0l0,-66.667l133.333,-0Z" style="fill:#5a82d8;fill-rule:nonzero;"/></g></g><g><g><path d="M900,908.333l0,219.534l-33.333,33.333l-33.334,-33.333l0,-219.534l-66.666,0l-0,233.334c-0,8.866 3.5,17.333 9.766,23.566l66.667,66.667c6.5,6.5 15.033,9.767 23.567,9.767c8.533,-0 17.066,-3.267 23.566,-9.767l66.667,-66.667c6.267,-6.233 9.767,-14.7 9.767,-23.566l-0,-233.334l-66.667,0Z" style="fill:#5a82d8;fill-rule:nonzero;"/></g></g></svg>